<svg xmlns="http://www.w3.org/2000/svg" viewBox="0 0 470 180" role="img" aria-label="Aligned KPIs">
  <defs>
    <linearGradient id="akpi-l-bars" x1="0" y1="0" x2="1" y2="0">
      <stop offset="0" stop-color="#3f9ad6"/>
      <stop offset="1" stop-color="#16314f"/>
    </linearGradient>
  </defs>
  <g>
    <path d="M 130.2 32.7 A 70 70 0 0 0 24.2 113.9" fill="none" stroke="#16314f" stroke-width="13" stroke-linecap="round"/>
    <path d="M 49.8 147.3 A 70 70 0 0 0 155.8 66.1" fill="none" stroke="#2178c4" stroke-width="13" stroke-linecap="round"/>
    <rect x="56"  y="92" width="15" height="28" rx="2" fill="#4aa3e0"/>
    <rect x="77"  y="72" width="15" height="48" rx="2" fill="#2e86c9"/>
    <rect x="98"  y="50" width="15" height="70" rx="2" fill="url(#akpi-l-bars)"/>
    <rect x="119" y="30" width="15" height="90" rx="2" fill="#16314f"/>
    <path d="M 34 132 C 72 124 108 100 142 52" fill="none" stroke="#6fb52c" stroke-width="12" stroke-linecap="round"/>
    <path d="M 160 24 L 128 38 L 147 55 Z" fill="#6fb52c"/>
  </g>
  <g font-family="-apple-system, BlinkMacSystemFont, 'SF Pro Display', 'Helvetica Neue', Helvetica, Arial, sans-serif" font-weight="700">
    <text x="190" y="83"  font-size="62" fill="#16314f">Aligned</text>
    <text x="190" y="152" font-size="62" fill="#2178c4">KPIs</text>
    <text x="334" y="122" font-size="26" fill="#2178c4">&#8482;</text>
  </g>
</svg>
